<svg xmlns="http://www.w3.org/2000/svg" version="1.1" xmlns:xlink="http://www.w3.org/1999/xlink" xmlns:svgjs="http://svgjs.com/svgjs" width="1440" height="560" preserveAspectRatio="none" viewBox="0 0 1440 560"><g mask="url(&quot;#SvgjsMask1836&quot;)" fill="none"><rect width="1440" height="560" x="0" y="0" fill="rgba(28, 180, 255, 1)"></rect><path d="M1512 560L0 560 L0 339.38Q32.63 300, 72 332.63Q125.07 313.7, 144 366.77Q165.44 268.2, 264 289.64Q333.58 239.22, 384 308.8Q449.21 254.01, 504 319.23Q584.45 279.69, 624 360.14Q647.68 263.82, 744 287.5Q791.01 262.51, 816 309.52Q892.88 266.4, 936 343.29Q1011.41 298.71, 1056 374.12Q1071.54 317.65, 1128 333.19Q1171.46 304.65, 1200 348.12Q1271.72 299.84, 1320 371.55Q1335.97 267.52, 1440 283.5Q1484.46 255.97, 1512 300.43z" fill="#182f5d"></path><path d="M1512 560L0 560 L0 434.41Q12.42 374.83, 72 387.24Q141.83 337.07, 192 406.9Q257.04 351.94, 312 416.97Q358.02 391, 384 437.02Q397.44 378.45, 456 391.89Q498.21 362.1, 528 404.31Q545.42 349.73, 600 367.15Q670.15 317.3, 720 387.45Q795.99 343.44, 840 419.42Q883.73 391.15, 912 434.89Q930.26 333.15, 1032 351.41Q1108.04 307.45, 1152 383.48Q1239.71 351.2, 1272 438.91Q1313.57 360.48, 1392 402.04Q1426.16 316.21, 1512 350.37z" fill="#25467d"></path><path d="M1488 560L0 560 L0 425.45Q78.84 432.29, 72 511.13Q65.53 432.66, 144 426.19Q211.92 374.11, 264 442.03Q307.1 413.13, 336 456.22Q377.91 426.13, 408 468.05Q456.89 444.94, 480 493.83Q494.55 436.38, 552 450.92Q601.83 380.75, 672 430.58Q727.86 414.44, 744 470.29Q789.67 395.97, 864 441.64Q930.37 388.01, 984 454.38Q1049.65 400.03, 1104 465.68Q1124.1 413.78, 1176 433.88Q1242.67 380.56, 1296 447.23Q1344.86 424.09, 1368 472.95Q1433.13 418.07, 1488 483.2z" fill="#356cb1"></path><path d="M1512 560L0 560 L0 577.29Q3.23 508.52, 72 511.75Q138.02 457.77, 192 523.79Q269.86 481.65, 312 559.51Q385.77 513.28, 432 587.06Q442.18 525.24, 504 535.43Q543.38 454.81, 624 494.19Q668.68 466.87, 696 511.55Q770.2 465.75, 816 539.95Q867.39 471.34, 936 522.73Q1025.1 491.83, 1056 580.93Q1071.44 524.38, 1128 539.82Q1147.87 487.69, 1200 507.56Q1266.88 454.45, 1320 521.33Q1406.23 487.56, 1440 573.79Q1444.69 506.48, 1512 511.17z" fill="white"></path></g><defs><mask id="SvgjsMask1836"><rect width="1440" height="560" fill="#ffffff"></rect></mask></defs></svg>